<?xml version="1.0" encoding="UTF-8"?>
<svg id="Layer_1" data-name="Layer 1" xmlns="http://www.w3.org/2000/svg" viewBox="0 0 427.29 335.07">
  <defs>
    <style>
      .cls-1 {
        fill: #181818;
        stroke-width: 0px;
      }
    </style>
  </defs>
  <polygon class="cls-1" points="157.76 150.14 118.47 232.74 -.64 52.54 93.71 52.54 157.76 150.14"/>
  <polyline class="cls-1" points="285.83 1.09 235.33 77.5 282.91 150 243.61 232.6 141.24 77.72 192.24 0"/>
  <g>
    <path class="cls-1" d="m22.15,335.07L-1.07,258.46h17.88l14.61,50.01,12.54-45.39h16.79l12.54,45.39,14.61-50.01h17.88l-23.23,76.61h-16.47l-13.74-46.6-13.74,46.6h-16.47Z"/>
    <path class="cls-1" d="m139.38,335.07l31.62-76.61h12.54l31.51,76.61h-18.65l-4.85-12.97h-28.62l-4.91,12.97h-18.65Zm29.39-28.36h17.01l-8.45-22.53-8.56,22.53Z"/>
    <path class="cls-1" d="m263.17,335.07v-76.61h26.72c19.19,0,26.39,9.01,26.39,22.64,0,10.72-4.52,17.75-12.76,21.16l19.96,32.81h-19.85l-17.56-30.45h-5.78v30.45h-17.12Zm17.12-45.83h7.85c5.45,0,11.01-.77,11.01-7.91s-5.67-7.47-11.01-7.47h-7.85v15.39Z"/>
    <path class="cls-1" d="m372.34,335.07v-76.61h26.72c17.56,0,26.39,7.36,26.39,22.53s-9.05,23.3-26.39,23.3h-9.71v30.77h-17.01Zm17.01-46.16h7.96c6.98,0,11.01-1.54,11.01-7.69,0-5.83-3.49-7.36-11.01-7.36h-7.96v15.06Z"/>
  </g>
  <polygon class="cls-1" points="282.32 99.78 330.61 174.18 427.42 26.2 331.07 26.2 282.32 99.78"/>
</svg>